# xmcd
#
# Track frame offsets: 
#        150
#        18473
#        41688
#        64808
#        102168
#        122941
#        145865
#        165538
#        185106
#        204735
#
# Disc length: 2971 seconds
#
# Revision: 0
# Processed by: cddbd v1.4PL0 Copyright (c) Steve Scherf et al.
# Submitted via: ExactAudioCopy v0.90b3
#
DISCID=930b990a
DTITLE=Lari White - Green Eyed Soul
DYEAR=1900
DGENRE=Country
TTITLE0=Nothing But Love
TTITLE1=Let's Keep It Together
TTITLE2=Because I'm A Woman
TTITLE3=Groove With Me Baby
TTITLE4=We Got It Goin' On
TTITLE5=Right Here Right Now
TTITLE6=Eden Before The Fall
TTITLE7=One More Time
TTITLE8=Always And Forever
TTITLE9=Spread The Word
EXTD=
EXTT0=
EXTT1=
EXTT2=
EXTT3=
EXTT4=
EXTT5=
EXTT6=
EXTT7=
EXTT8=
EXTT9=
PLAYORDER=
